Fira Mono-Regular.ufo 1.13.51 PM
<glyph name="quotedbl" format="1">
  <advance width="600"/>
  <unicode hex="0022"/>
  <outline>
    <contour>
      <point x="254" y="477" type="line"/>
      <point x="270" y="739" type="line"/>
      <point x="160" y="739" type="line"/>
      <point x="176" y="477" type="line"/>
    </contour>
    <contour>
      <point x="424" y="477" type="line"/>
      <point x="440" y="739" type="line"/>
      <point x="330" y="739" type="line"/>
      <point x="346" y="477" type="line"/>
    </contour>
  </outline>
</glyph>
<glyph name="asterisk" format="1">
  <advance width="600"/>
  <unicode hex="002A"/>
  <outline>
    <contour>
      <point x="255" y="527" type="line"/>
      <point x="270" y="364" type="line"/>
      <point x="121" y="427" type="line"/>
      <point x="94" y="342" type="line"/>
      <point x="252" y="307" type="line"/>
      <point x="146" y="182" type="line"/>
      <point x="221" y="131" type="line"/>
      <point x="301" y="273" type="line"/>
      <point x="386" y="133" type="line"/>
      <point x="459" y="188" type="line"/>
      <point x="349" y="307" type="line"/>
      <point x="506" y="342" type="line"/>
      <point x="479" y="427" type="line"/>
      <point x="329" y="364" type="line"/>
      <point x="345" y="527" type="line"/>
    </contour>
  </outline>
</glyph>
<glyph name="two" format="1">
  <advance width="600"/>
  <unicode hex="0032"/>
  <outline>
    <contour>
      <point x="175" y="701"/>
      <point x="111" y="667"/>
      <point x="57" y="600" type="curve"/>
      <point x="119" y="552" type="line"/>
      <point x="162" y="603"/>
      <point x="199" y="625"/>
      <point x="265" y="625" type="curve" smooth="yes"/>
      <point x="340" y="625"/>
      <point x="385" y="579"/>
      <point x="385" y="504" type="curve" smooth="yes"/>
      <point x="385" y="395"/>
      <point x="327" y="319"/>
      <point x="71" y="73" type="curve"/>
      <point x="71" y="0" type="line"/>
      <point x="486" y="0" type="line"/>
      <point x="497" y="77" type="line"/>
      <point x="176" y="77" type="line"/>
      <point x="401" y="282"/>
      <point x="481" y="383"/>
      <point x="481" y="508" type="curve" smooth="yes"/>
      <point x="481" y="617"/>
      <point x="403" y="701"/>
      <point x="270" y="701" type="curve" smooth="yes"/>
    </contour>
  </outline>
</glyph>
<glyph name="O" format="1">
  <advance width="600"/>
  <unicode hex="004F"/>
  <outline>
    <contour>
      <point x="556" y="558"/>
      <point x="469" y="701"/>
      <point x="300" y="701" type="curve" smooth="yes"/>
      <point x="131" y="701"/>
      <point x="44" y="553"/>
      <point x="44" y="343" type="curve" smooth="yes"/>
      <point x="44" y="129"/>
      <point x="131" y="-12"/>
      <point x="300" y="-12" type="curve" smooth="yes"/>
      <point x="469" y="-12"/>
      <point x="556" y="134"/>
      <point x="556" y="344" type="curve" smooth="yes"/>
    </contour>
    <contour>
      <point x="457" y="162"/>
      <point x="412" y="66"/>
      <point x="300" y="66" type="curve" smooth="yes"/>
      <point x="191" y="66"/>
      <point x="143" y="161"/>
      <point x="143" y="343" type="curve" smooth="yes"/>
      <point x="143" y="525"/>
      <point x="188" y="623"/>
      <point x="300" y="623" type="curve" smooth="yes"/>
      <point x="412" y="623"/>
      <point x="457" y="526"/>
      <point x="457" y="344" type="curve" smooth="yes"/>
    </contour>
    <contour>
      <point x="300" y="689" type="move" name="top"/>
    </contour>
  </outline>
</glyph>
<glyph name="X" format="1">
  <advance width="600"/>
  <unicode hex="0058"/>
  <outline>
    <contour>
      <point x="242" y="367" type="line"/>
      <point x="28" y="0" type="line"/>
      <point x="130" y="0" type="line"/>
      <point x="298" y="306" type="line"/>
      <point x="464" y="0" type="line"/>
      <point x="572" y="0" type="line"/>
      <point x="355" y="372" type="line"/>
      <point x="549" y="689" type="line"/>
      <point x="447" y="689" type="line"/>
      <point x="300" y="429" type="line"/>
      <point x="154" y="689" type="line"/>
      <point x="46" y="689" type="line"/>
    </contour>
    <contour>
      <point x="527" y="0" type="move" name="bottomright"/>
    </contour>
  </outline>
</glyph>
<glyph name="q" format="1">
  <advance width="600"/>
  <unicode hex="0071"/>
  <outline>
    <contour>
      <point x="141" y="539"/>
      <point x="70" y="422"/>
      <point x="70" y="263" type="curve" smooth="yes"/>
      <point x="70" y="97"/>
      <point x="123" y="-12"/>
      <point x="264" y="-12" type="curve" smooth="yes"/>
      <point x="322" y="-12"/>
      <point x="373" y="12"/>
      <point x="411" y="64" type="curve"/>
      <point x="411" y="-202" type="line"/>
      <point x="503" y="-213" type="line"/>
      <point x="503" y="527" type="line"/>
      <point x="424" y="527" type="line"/>
      <point x="417" y="471" type="line"/>
      <point x="382" y="515"/>
      <point x="334" y="539"/>
      <point x="272" y="539" type="curve" smooth="yes"/>
    </contour>
    <contour>
      <point x="343" y="466"/>
      <point x="384" y="442"/>
      <point x="411" y="401" type="curve"/>
      <point x="411" y="142" type="line"/>
      <point x="383" y="99"/>
      <point x="341" y="63"/>
      <point x="285" y="63" type="curve" smooth="yes"/>
      <point x="207" y="63"/>
      <point x="168" y="127"/>
      <point x="168" y="263" type="curve" smooth="yes"/>
      <point x="168" y="400"/>
      <point x="211" y="466"/>
      <point x="295" y="466" type="curve" smooth="yes"/>
    </contour>
  </outline>
</glyph>
<glyph name="r" format="1">
  <advance width="600"/>
  <unicode hex="0072"/>
  <outline>
    <contour>
      <point x="452" y="71" type="line"/>
      <point x="305" y="71" type="line"/>
      <point x="305" y="309" type="line"/>
      <point x="323" y="382"/>
      <point x="376" y="449"/>
      <point x="446" y="449" type="curve" smooth="yes"/>
      <point x="469" y="449"/>
      <point x="485" y="446"/>
      <point x="507" y="440" type="curve"/>
      <point x="524" y="531" type="line"/>
      <point x="499" y="537"/>
      <point x="481" y="539"/>
      <point x="455" y="539" type="curve" smooth="yes"/>
      <point x="392" y="539"/>
      <point x="334" y="500"/>
      <point x="304" y="426" type="curve"/>
      <point x="293" y="527" type="line"/>
      <point x="92" y="527" type="line"/>
      <point x="92" y="456" type="line"/>
      <point x="213" y="456" type="line"/>
      <point x="213" y="71" type="line"/>
      <point x="92" y="71" type="line"/>
      <point x="92" y="0" type="line"/>
      <point x="452" y="0" type="line"/>
    </contour>
    <contour>
      <point x="310" y="527" type="move" name="top"/>
    </contour>
    <contour>
      <point x="259" y="0" type="move" name="bottom"/>
    </contour>
  </outline>
</glyph>
<glyph name="t" format="1">
  <advance width="600"/>
  <unicode hex="0074"/>
  <outline>
    <contour>
      <point x="487" y="89" type="line"/>
      <point x="459" y="74"/>
      <point x="426" y="64"/>
      <point x="387" y="64" type="curve" smooth="yes"/>
      <point x="317" y="64"/>
      <point x="289" y="94"/>
      <point x="289" y="152" type="curve" smooth="yes"/>
      <point x="289" y="457" type="line"/>
      <point x="459" y="457" type="line"/>
      <point x="470" y="527" type="line"/>
      <point x="289" y="527" type="line"/>
      <point x="289" y="657" type="line"/>
      <point x="197" y="646" type="line"/>
      <point x="197" y="527" type="line"/>
      <point x="77" y="527" type="line"/>
      <point x="77" y="457" type="line"/>
      <point x="197" y="457" type="line"/>
      <point x="197" y="151" type="line" smooth="yes"/>
      <point x="197" y="55"/>
      <point x="261" y="-12"/>
      <point x="377" y="-12" type="curve" smooth="yes"/>
      <point x="429" y="-12"/>
      <point x="485" y="3"/>
      <point x="522" y="27" type="curve"/>
    </contour>
    <contour>
      <point x="300" y="264" type="move" name="center"/>
    </contour>
    <contour>
      <point x="370" y="0" type="move" name="bottom"/>
    </contour>
    <contour>
      <point x="331" y="759" type="move" name="topright"/>
    </contour>
  </outline>
</glyph>
<glyph name="yen" format="1">
  <advance width="600"/>
  <unicode hex="00A5"/>
  <outline>
    <contour>
      <point x="467" y="689" type="line"/>
      <point x="305" y="376" type="line"/>
      <point x="301" y="376" type="line"/>
      <point x="139" y="689" type="line"/>
      <point x="36" y="689" type="line"/>
      <point x="227" y="346" type="line"/>
      <point x="113" y="346" type="line"/>
      <point x="113" y="285" type="line"/>
      <point x="252" y="285" type="line"/>
      <point x="252" y="201" type="line"/>
      <point x="113" y="201" type="line"/>
      <point x="113" y="140" type="line"/>
      <point x="252" y="140" type="line"/>
      <point x="252" y="0" type="line"/>
      <point x="348" y="0" type="line"/>
      <point x="348" y="140" type="line"/>
      <point x="489" y="140" type="line"/>
      <point x="489" y="201" type="line"/>
      <point x="348" y="201" type="line"/>
      <point x="348" y="285" type="line"/>
      <point x="489" y="285" type="line"/>
      <point x="489" y="346" type="line"/>
      <point x="372" y="346" type="line"/>
      <point x="564" y="689" type="line"/>
    </contour>
    <contour>
      <point x="376" y="697" type="move" name="top"/>
    </contour>
    <contour>
      <point x="487" y="705" type="move" name="topright"/>
    </contour>
    <contour>
      <point x="262" y="705" type="move" name="topleft"/>
    </contour>
    <contour>
      <point x="374" y="0" type="move" name="bottom"/>
    </contour>
  </outline>
</glyph>
<glyph name="ordfeminine" format="1">
  <advance width="600"/>
  <unicode hex="00AA"/>
  <outline>
    <contour>
      <point x="245" y="750"/>
      <point x="192" y="742"/>
      <point x="133" y="720" type="curve"/>
      <point x="157" y="658" type="line"/>
      <point x="205" y="675"/>
      <point x="250" y="682"/>
      <point x="278" y="682" type="curve" smooth="yes"/>
      <point x="340" y="682"/>
      <point x="375" y="661"/>
      <point x="375" y="606" type="curve" smooth="yes"/>
      <point x="375" y="578" type="line"/>
      <point x="317" y="578" type="line" smooth="yes"/>
      <point x="181" y="578"/>
      <point x="100" y="529"/>
      <point x="100" y="440" type="curve" smooth="yes"/>
      <point x="100" y="360"/>
      <point x="161" y="307"/>
      <point x="252" y="307" type="curve" smooth="yes"/>
      <point x="303" y="307"/>
      <point x="353" y="328"/>
      <point x="386" y="366" type="curve"/>
      <point x="401" y="329"/>
      <point x="429" y="312"/>
      <point x="472" y="307" type="curve"/>
      <point x="492" y="365" type="line"/>
      <point x="470" y="372"/>
      <point x="459" y="385"/>
      <point x="459" y="415" type="curve" smooth="yes"/>
      <point x="459" y="609" type="line" smooth="yes"/>
      <point x="459" y="697"/>
      <point x="405" y="750"/>
      <point x="290" y="750" type="curve" smooth="yes"/>
    </contour>
    <contour>
      <point x="105" y="79" type="line"/>
      <point x="105" y="0" type="line"/>
      <point x="500" y="0" type="line"/>
      <point x="500" y="79" type="line"/>
    </contour>
    <contour>
      <point x="375" y="425" type="line"/>
      <point x="350" y="391"/>
      <point x="312" y="370"/>
      <point x="273" y="370" type="curve" smooth="yes"/>
      <point x="221" y="370"/>
      <point x="191" y="395"/>
      <point x="191" y="444" type="curve" smooth="yes"/>
      <point x="191" y="492"/>
      <point x="229" y="519"/>
      <point x="320" y="519" type="curve" smooth="yes"/>
      <point x="375" y="519" type="line"/>
    </contour>
  </outline>
</glyph>
<glyph name="ae" format="1">
  <advance width="600"/>
  <unicode hex="00E6"/>
  <outline>
    <contour>
      <point x="371" y="539"/>
      <point x="327" y="506"/>
      <point x="308" y="453" type="curve"/>
      <point x="287" y="505"/>
      <point x="249" y="539"/>
      <point x="170" y="539" type="curve" smooth="yes"/>
      <point x="126" y="539"/>
      <point x="79" y="526"/>
      <point x="34" y="505" type="curve"/>
      <point x="58" y="439" type="line"/>
      <point x="101" y="458"/>
      <point x="126" y="466"/>
      <point x="161" y="466" type="curve" smooth="yes"/>
      <point x="219" y="466"/>
      <point x="252" y="435"/>
      <point x="252" y="362" type="curve" smooth="yes"/>
      <point x="252" y="321" type="line"/>
      <point x="207" y="321" type="line" smooth="yes"/>
      <point x="67" y="321"/>
      <point x="-6" y="261"/>
      <point x="-6" y="151" type="curve" smooth="yes"/>
      <point x="-6" y="53"/>
      <point x="53" y="-12"/>
      <point x="146" y="-12" type="curve" smooth="yes"/>
      <point x="213" y="-12"/>
      <point x="252" y="15"/>
      <point x="297" y="77" type="curve"/>
      <point x="330" y="20"/>
      <point x="376" y="-12"/>
      <point x="447" y="-12" type="curve" smooth="yes"/>
      <point x="505" y="-12"/>
      <point x="548" y="9"/>
      <point x="588" y="41" type="curve"/>
      <point x="547" y="101" type="line"/>
      <point x="514" y="76"/>
      <point x="487" y="62"/>
      <point x="449" y="62" type="curve" smooth="yes"/>
      <point x="380" y="62"/>
      <point x="347" y="115"/>
      <point x="338" y="232" type="curve"/>
      <point x="604" y="232" type="line"/>
      <point x="605" y="245"/>
      <point x="606" y="261"/>
      <point x="606" y="279" type="curve" smooth="yes"/>
      <point x="606" y="441"/>
      <point x="554" y="539"/>
      <point x="434" y="539" type="curve" smooth="yes"/>
    </contour>
    <contour>
      <point x="252" y="220"/>
      <point x="256" y="182"/>
      <point x="265" y="150" type="curve"/>
      <point x="231" y="89"/>
      <point x="203" y="57"/>
      <point x="160" y="57" type="curve" smooth="yes"/>
      <point x="117" y="57"/>
      <point x="89" y="91"/>
      <point x="89" y="156" type="curve" smooth="yes"/>
      <point x="89" y="219"/>
      <point x="119" y="260"/>
      <point x="212" y="260" type="curve" smooth="yes"/>
      <point x="252" y="260" type="line"/>
    </contour>
    <contour>
      <point x="497" y="466"/>
      <point x="518" y="409"/>
      <point x="520" y="300" type="curve"/>
      <point x="338" y="300" type="line"/>
      <point x="346" y="423"/>
      <point x="373" y="466"/>
      <point x="431" y="466" type="curve" smooth="yes"/>
    </contour>
    <contour>
      <point x="308" y="527" type="move" name="top"/>
    </contour>
  </outline>
</glyph>
<glyph name="IJ" format="1">
  <advance width="600"/>
  <unicode hex="0132"/>
  <outline>
    <contour>
      <point x="204" y="-141" type="line"/>
      <point x="470" y="-115"/>
      <point x="535" y="27"/>
      <point x="535" y="186" type="curve" smooth="yes"/>
      <point x="535" y="689" type="line"/>
      <point x="11" y="689" type="line"/>
      <point x="11" y="614" type="line"/>
      <point x="108" y="614" type="line"/>
      <point x="108" y="75" type="line"/>
      <point x="11" y="75" type="line"/>
      <point x="11" y="0" type="line"/>
      <point x="281" y="0" type="line"/>
      <point x="281" y="75" type="line"/>
      <point x="204" y="75" type="line"/>
      <point x="204" y="614" type="line"/>
      <point x="440" y="614" type="line"/>
      <point x="440" y="190" type="line" smooth="yes"/>
      <point x="440" y="43"/>
      <point x="394" y="-50"/>
      <point x="193" y="-71" type="curve"/>
    </contour>
  </outline>
</glyph>
<glyph name="Tbar" format="1">
  <advance width="600"/>
  <unicode hex="0166"/>
  <outline>
    <contour>
      <point x="476" y="346" type="line"/>
      <point x="476" y="416" type="line"/>
      <point x="251" y="416" type="line"/>
      <point x="122" y="416" type="line"/>
      <point x="122" y="346" type="line"/>
      <point x="346" y="346" type="line"/>
    </contour>
    <component base="T"/>
  </outline>
</glyph>
<glyph name="tbar" format="1">
  <advance width="600"/>
  <unicode hex="0167"/>
  <outline>
    <contour>
      <point x="197" y="353" type="line"/>
      <point x="88" y="353" type="line"/>
      <point x="88" y="285" type="line"/>
      <point x="289" y="285" type="line"/>
      <point x="460" y="285" type="line"/>
      <point x="460" y="353" type="line"/>
    </contour>
    <component base="t"/>
  </outline>
</glyph>
<glyph name="uni02BC" format="1">
  <advance width="600"/>
  <unicode hex="02BC"/>
  <outline>
    <contour>
      <point x="261" y="750"/>
      <point x="235" y="726"/>
      <point x="235" y="694" type="curve" smooth="yes"/>
      <point x="235" y="675"/>
      <point x="245" y="659"/>
      <point x="259" y="647" type="curve"/>
      <point x="230" y="531" type="line"/>
      <point x="283" y="531" type="line"/>
      <point x="324" y="617" type="line" smooth="yes"/>
      <point x="345" y="661"/>
      <point x="350" y="677"/>
      <point x="350" y="694" type="curve" smooth="yes"/>
      <point x="350" y="726"/>
      <point x="325" y="750"/>
      <point x="293" y="750" type="curve" smooth="yes"/>
    </contour>
    <contour>
      <point x="283" y="527" type="move" name="_topleft"/>
    </contour>
  </outline>
</glyph>
<glyph name="tilde" format="1">
  <advance width="600"/>
  <unicode hex="02DC"/>
  <outline>
    <contour>
      <point x="409" y="650"/>
      <point x="445" y="692"/>
      <point x="465" y="739" type="curve"/>
      <point x="408" y="764" type="line"/>
      <point x="392" y="736"/>
      <point x="379" y="720"/>
      <point x="357" y="720" type="curve" smooth="yes"/>
      <point x="326" y="720"/>
      <point x="307" y="768"/>
      <point x="247" y="768" type="curve" smooth="yes"/>
      <point x="190" y="768"/>
      <point x="154" y="727"/>
      <point x="134" y="680" type="curve"/>
      <point x="191" y="654" type="line"/>
      <point x="207" y="682"/>
      <point x="220" y="698"/>
      <point x="242" y="698" type="curve" smooth="yes"/>
      <point x="273" y="698"/>
      <point x="294" y="650"/>
      <point x="352" y="650" type="curve" smooth="yes"/>
    </contour>
    <contour>
      <point x="300" y="527" type="move" name="_top"/>
    </contour>
  </outline>
</glyph>
<glyph name="uni030C" format="1">
  <advance width="600"/>
  <unicode hex="030C"/>
  <outline>
    <contour>
      <point x="300" y="656" type="line"/>
      <point x="174" y="737" type="line"/>
      <point x="134" y="692" type="line"/>
      <point x="270" y="582" type="line"/>
      <point x="331" y="582" type="line"/>
      <point x="466" y="692" type="line"/>
      <point x="427" y="737" type="line"/>
    </contour>
    <contour>
      <point x="300" y="527" type="move" name="_top"/>
    </contour>
  </outline>
</glyph>
<glyph name="tonos" format="1">
  <advance width="600"/>
  <unicode hex="0384"/>
  <outline>
    <contour>
      <point x="300" y="589" type="line"/>
      <point x="369" y="794" type="line"/>
      <point x="269" y="812" type="line"/>
      <point x="231" y="601" type="line"/>
    </contour>
    <contour>
      <point x="270" y="527" type="move" name="_top"/>
    </contour>
  </outline>
</glyph>
<glyph name="dieresistonos" format="1">
  <advance width="600"/>
  <unicode hex="0385"/>
  <outline>
    <contour>
      <point x="265" y="727" type="line"/>
      <point x="333" y="717" type="line"/>
      <point x="395" y="888" type="line"/>
      <point x="294" y="906" type="line"/>
    </contour>
    <contour>
      <point x="152" y="725"/>
      <point x="127" y="701"/>
      <point x="127" y="668" type="curve" smooth="yes"/>
      <point x="127" y="636"/>
      <point x="152" y="612"/>
      <point x="185" y="612" type="curve" smooth="yes"/>
      <point x="217" y="612"/>
      <point x="242" y="636"/>
      <point x="242" y="668" type="curve" smooth="yes"/>
      <point x="242" y="701"/>
      <point x="217" y="725"/>
      <point x="185" y="725" type="curve" smooth="yes"/>
    </contour>
    <contour>
      <point x="382" y="725"/>
      <point x="357" y="701"/>
      <point x="357" y="668" type="curve" smooth="yes"/>
      <point x="357" y="636"/>
      <point x="382" y="612"/>
      <point x="414" y="612" type="curve" smooth="yes"/>
      <point x="447" y="612"/>
      <point x="472" y="636"/>
      <point x="472" y="668" type="curve" smooth="yes"/>
      <point x="472" y="701"/>
      <point x="447" y="725"/>
      <point x="414" y="725" type="curve" smooth="yes"/>
    </contour>
  </outline>
</glyph>
<glyph name="Omega" format="1">
  <advance width="600"/>
  <unicode hex="03A9"/>
  <outline>
    <contour>
      <point x="402" y="623"/>
      <point x="457" y="546"/>
      <point x="457" y="352" type="curve" smooth="yes"/>
      <point x="457" y="194"/>
      <point x="414" y="110"/>
      <point x="334" y="70" type="curve"/>
      <point x="334" y="0" type="line"/>
      <point x="545" y="0" type="line"/>
      <point x="545" y="75" type="line"/>
      <point x="431" y="75" type="line"/>
      <point x="431" y="79" type="line"/>
      <point x="509" y="121"/>
      <point x="556" y="207"/>
      <point x="556" y="352" type="curve" smooth="yes"/>
      <point x="556" y="573"/>
      <point x="457" y="701"/>
      <point x="300" y="701" type="curve" smooth="yes"/>
      <point x="143" y="701"/>
      <point x="44" y="573"/>
      <point x="44" y="352" type="curve" smooth="yes"/>
      <point x="44" y="207"/>
      <point x="89" y="119"/>
      <point x="167" y="79" type="curve"/>
      <point x="167" y="75" type="line"/>
      <point x="55" y="75" type="line"/>
      <point x="55" y="0" type="line"/>
      <point x="267" y="0" type="line"/>
      <point x="267" y="70" type="line"/>
      <point x="187" y="110"/>
      <point x="143" y="194"/>
      <point x="143" y="352" type="curve" smooth="yes"/>
      <point x="143" y="546"/>
      <point x="197" y="623"/>
      <point x="300" y="623" type="curve" smooth="yes"/>
    </contour>
    <component base="Omega"/>
    <contour>
      <point x="300" y="689" type="move" name="top"/>
    </contour>
  </outline>
</glyph>
<glyph name="alpha" format="1">
  <advance width="600"/>
  <unicode hex="03B1"/>
  <outline>
    <contour>
      <point x="124" y="539"/>
      <point x="56" y="422"/>
      <point x="56" y="259" type="curve" smooth="yes"/>
      <point x="56" y="78"/>
      <point x="128" y="-12"/>
      <point x="248" y="-12" type="curve" smooth="yes"/>
      <point x="337" y="-12"/>
      <point x="385" y="55"/>
      <point x="412" y="138" type="curve"/>
      <point x="421" y="82" type="line" smooth="yes"/>
      <point x="430" y="25"/>
      <point x="471" y="-6"/>
      <point x="515" y="-13" type="curve"/>
      <point x="547" y="63" type="line"/>
      <point x="517" y="74"/>
      <point x="506" y="89"/>
      <point x="501" y="116" type="curve" smooth="yes"/>
      <point x="475" y="250" type="line"/>
      <point x="530" y="527" type="line"/>
      <point x="446" y="527" type="line"/>
      <point x="419" y="376" type="line"/>
      <point x="398" y="497"/>
      <point x="344" y="539"/>
      <point x="254" y="539" type="curve" smooth="yes"/>
    </contour>
    <contour>
      <point x="326" y="466"/>
      <point x="368" y="424"/>
      <point x="395" y="267" type="curve"/>
      <point x="362" y="94"/>
      <point x="306" y="61"/>
      <point x="258" y="61" type="curve" smooth="yes"/>
      <point x="190" y="61"/>
      <point x="154" y="122"/>
      <point x="154" y="259" type="curve" smooth="yes"/>
      <point x="154" y="394"/>
      <point x="193" y="466"/>
      <point x="262" y="466" type="curve" smooth="yes"/>
    </contour>
    <contour>
      <point x="277" y="527" type="move" name="top"/>
    </contour>
  </outline>
</glyph>
<glyph name="zeta" format="1">
  <advance width="600"/>
  <unicode hex="03B6"/>
  <outline>
    <contour>
      <point x="161" y="739" type="line"/>
      <point x="150" y="665" type="line"/>
      <point x="295" y="665" type="line" smooth="yes"/>
      <point x="340" y="665"/>
      <point x="418" y="667"/>
      <point x="445" y="678" type="curve"/>
      <point x="212" y="510"/>
      <point x="109" y="390"/>
      <point x="109" y="252" type="curve" smooth="yes"/>
      <point x="109" y="117"/>
      <point x="180" y="70"/>
      <point x="320" y="21" type="curve" smooth="yes"/>
      <point x="401" y="-7"/>
      <point x="428" y="-17"/>
      <point x="428" y="-53" type="curve" smooth="yes"/>
      <point x="428" y="-102"/>
      <point x="387" y="-130"/>
      <point x="330" y="-159" type="curve"/>
      <point x="367" y="-223" type="line"/>
      <point x="475" y="-175"/>
      <point x="527" y="-119"/>
      <point x="527" y="-43" type="curve" smooth="yes"/>
      <point x="527" y="35"/>
      <point x="468" y="58"/>
      <point x="363" y="93" type="curve" smooth="yes"/>
      <point x="253" y="130"/>
      <point x="209" y="159"/>
      <point x="209" y="255" type="curve" smooth="yes"/>
      <point x="209" y="383"/>
      <point x="319" y="496"/>
      <point x="534" y="678" type="curve"/>
      <point x="522" y="739" type="line"/>
    </contour>
  </outline>
</glyph>
<glyph name="sigma1" format="1">
  <advance width="600"/>
  <unicode hex="03C2"/>
  <outline>
    <contour>
      <point x="205" y="539"/>
      <point x="99" y="440"/>
      <point x="99" y="272" type="curve"/>
      <point x="99" y="135"/>
      <point x="166" y="77"/>
      <point x="292" y="31" type="curve" smooth="yes"/>
      <point x="391" y="-5"/>
      <point x="413" y="-15"/>
      <point x="413" y="-55" type="curve" smooth="yes"/>
      <point x="413" y="-103"/>
      <point x="372" y="-128"/>
      <point x="315" y="-151" type="curve"/>
      <point x="354" y="-215" type="line"/>
      <point x="462" y="-168"/>
      <point x="512" y="-120"/>
      <point x="512" y="-45" type="curve" smooth="yes"/>
      <point x="512" y="34"/>
      <point x="453" y="63"/>
      <point x="353" y="100" type="curve" smooth="yes"/>
      <point x="227" y="146"/>
      <point x="197" y="174"/>
      <point x="197" y="272" type="curve"/>
      <point x="197" y="399"/>
      <point x="269" y="463"/>
      <point x="353" y="463" type="curve" smooth="yes"/>
      <point x="410" y="463"/>
      <point x="443" y="450"/>
      <point x="485" y="422" type="curve"/>
      <point x="530" y="482" type="line"/>
      <point x="474" y="523"/>
      <point x="424" y="539"/>
      <point x="349" y="539" type="curve" smooth="yes"/>
    </contour>
  </outline>
</glyph>
<glyph name="sigma" format="1">
  <advance width="600"/>
  <unicode hex="03C3"/>
  <outline>
    <contour>
      <point x="161" y="533"/>
      <point x="70" y="426"/>
      <point x="70" y="263" type="curve" smooth="yes"/>
      <point x="70" y="96"/>
      <point x="153" y="-12"/>
      <point x="300" y="-12" type="curve" smooth="yes"/>
      <point x="446" y="-12"/>
      <point x="531" y="100"/>
      <point x="528" y="264" type="curve" smooth="yes"/>
      <point x="526" y="373"/>
      <point x="484" y="441"/>
      <point x="427" y="469" type="curve"/>
      <point x="355" y="469" type="line"/>
      <point x="398" y="437"/>
      <point x="430" y="377"/>
      <point x="430" y="264" type="curve" smooth="yes"/>
      <point x="430" y="126"/>
      <point x="386" y="62"/>
      <point x="300" y="62" type="curve" smooth="yes"/>
      <point x="213" y="62"/>
      <point x="168" y="126"/>
      <point x="168" y="263" type="curve" smooth="yes"/>
      <point x="168" y="436"/>
      <point x="252" y="467"/>
      <point x="374" y="464" type="curve"/>
      <point x="419" y="463" type="line"/>
      <point x="561" y="453" type="line"/>
      <point x="561" y="527" type="line"/>
      <point x="494" y="530"/>
      <point x="399" y="533"/>
      <point x="320" y="533" type="curve"/>
    </contour>
  </outline>
</glyph>
<glyph name="chi" format="1">
  <advance width="600"/>
  <unicode hex="03C7"/>
  <outline>
    <contour>
      <point x="50" y="505" type="line"/>
      <point x="124" y="430"/>
      <point x="170" y="368"/>
      <point x="252" y="182" type="curve"/>
      <point x="306" y="118" type="line"/>
      <point x="461" y="-213" type="line"/>
      <point x="556" y="-202" type="line"/>
      <point x="360" y="186" type="line"/>
      <point x="307" y="242" type="line"/>
      <point x="249" y="397"/>
      <point x="202" y="473"/>
      <point x="140" y="538" type="curve"/>
    </contour>
    <contour>
      <point x="307" y="242" type="line"/>
      <point x="252" y="182" type="line"/>
      <point x="54" y="-202" type="line"/>
      <point x="148" y="-211" type="line"/>
      <point x="306" y="118" type="line"/>
      <point x="360" y="186" type="line"/>
      <point x="537" y="527" type="line"/>
      <point x="442" y="535" type="line" smooth="yes"/>
    </contour>
  </outline>
</glyph>
<glyph name="uni0414" format="1">
  <advance width="600"/>
  <unicode hex="0414"/>
  <outline>
    <contour>
      <point x="165" y="689" type="line"/>
      <point x="140" y="489" type="line" smooth="yes"/>
      <point x="103" y="201"/>
      <point x="95" y="131"/>
      <point x="41" y="78" type="curve"/>
      <point x="89" y="0" type="line"/>
      <point x="476" y="0" type="line"/>
      <point x="515" y="78" type="line"/>
      <point x="515" y="689" type="line"/>
    </contour>
    <contour>
      <point x="420" y="78" type="line"/>
      <point x="130" y="78" type="line"/>
      <point x="191" y="133"/>
      <point x="203" y="213"/>
      <point x="234" y="485" type="curve" smooth="yes"/>
      <point x="248" y="611" type="line"/>
      <point x="420" y="611" type="line"/>
    </contour>
    <component base="descStraight-cy.case" xOffset="207"/>
    <component base="descStraight-cy.case" xOffset="358" xScale="-1"/>
  </outline>
</glyph>
<glyph name="uni0418" format="1">
  <advance width="600"/>
  <unicode hex="0418"/>
  <outline>
    <contour>
      <point x="201" y="0" type="line"/>
      <point x="436" y="585" type="line"/>
      <point x="440" y="585" type="line"/>
      <point x="435" y="535"/>
      <point x="427" y="444"/>
      <point x="427" y="336" type="curve" smooth="yes"/>
      <point x="427" y="0" type="line"/>
      <point x="520" y="0" type="line"/>
      <point x="520" y="689" type="line"/>
      <point x="401" y="689" type="line"/>
      <point x="164" y="101" type="line"/>
      <point x="160" y="101" type="line"/>
      <point x="166" y="160"/>
      <point x="173" y="229"/>
      <point x="173" y="353" type="curve" smooth="yes"/>
      <point x="173" y="689" type="line"/>
      <point x="80" y="689" type="line"/>
      <point x="80" y="0" type="line"/>
    </contour>
    <contour>
      <point x="300" y="689" type="move" name="top"/>
    </contour>
  </outline>
</glyph>
<glyph name="uni0427" format="1">
  <advance width="600"/>
  <unicode hex="0427"/>
  <outline>
    <contour>
      <point x="48" y="689" type="line"/>
      <point x="48" y="424" type="line" smooth="yes"/>
      <point x="48" y="297"/>
      <point x="128" y="217"/>
      <point x="250" y="217" type="curve" smooth="yes"/>
      <point x="329" y="217"/>
      <point x="378" y="240"/>
      <point x="444" y="292" type="curve"/>
      <point x="434" y="365" type="line"/>
      <point x="401" y="329"/>
      <point x="351" y="298"/>
      <point x="274" y="298" type="curve" smooth="yes"/>
      <point x="190" y="298"/>
      <point x="143" y="339"/>
      <point x="143" y="431" type="curve" smooth="yes"/>
      <point x="143" y="689" type="line"/>
    </contour>
    <contour>
      <point x="425" y="689" type="line"/>
      <point x="425" y="0" type="line"/>
      <point x="520" y="0" type="line"/>
      <point x="520" y="689" type="line"/>
    </contour>
    <contour>
      <point x="289" y="689" type="move" name="top"/>
    </contour>
  </outline>
</glyph>
<glyph name="uni0437" format="1">
  <advance width="600"/>
  <unicode hex="0437"/>
  <outline>
    <contour>
      <point x="183" y="239" type="line"/>
      <point x="290" y="239" type="line" smooth="yes"/>
      <point x="375" y="239"/>
      <point x="420" y="212"/>
      <point x="420" y="156" type="curve" smooth="yes"/>
      <point x="420" y="99"/>
      <point x="373" y="62"/>
      <point x="283" y="62" type="curve" smooth="yes"/>
      <point x="201" y="62"/>
      <point x="144" y="84"/>
      <point x="97" y="120" type="curve"/>
      <point x="51" y="61" type="line"/>
      <point x="101" y="21"/>
      <point x="173" y="-12"/>
      <point x="281" y="-12" type="curve" smooth="yes"/>
      <point x="416" y="-12"/>
      <point x="519" y="46"/>
      <point x="519" y="152" type="curve" smooth="yes"/>
      <point x="519" y="236"/>
      <point x="456" y="269"/>
      <point x="381" y="281" type="curve"/>
      <point x="445" y="299"/>
      <point x="490" y="340"/>
      <point x="490" y="397" type="curve" smooth="yes"/>
      <point x="490" y="496"/>
      <point x="396" y="539"/>
      <point x="278" y="539" type="curve" smooth="yes"/>
      <point x="200" y="539"/>
      <point x="121" y="515"/>
      <point x="70" y="475" type="curve"/>
      <point x="115" y="419" type="line"/>
      <point x="158" y="451"/>
      <point x="218" y="467"/>
      <point x="274" y="467" type="curve" smooth="yes"/>
      <point x="351" y="467"/>
      <point x="395" y="442"/>
      <point x="395" y="388" type="curve" smooth="yes"/>
      <point x="395" y="342"/>
      <point x="353" y="311"/>
      <point x="284" y="311" type="curve" smooth="yes"/>
      <point x="189" y="311" type="line"/>
    </contour>
    <contour>
      <point x="293" y="527" type="move" name="top"/>
    </contour>
    <contour>
      <point x="300" y="0" type="move" name="bottom"/>
    </contour>
  </outline>
</glyph>
<glyph name="uni0463" format="1">
  <advance width="600"/>
  <unicode hex="0463"/>
  <outline>
    <contour>
      <point x="140" y="646" type="line"/>
      <point x="140" y="537" type="line"/>
      <point x="56" y="537" type="line"/>
      <point x="56" y="467" type="line"/>
      <point x="140" y="467" type="line"/>
      <point x="140" y="0" type="line"/>
      <point x="302" y="0" type="line" smooth="yes"/>
      <point x="442" y="0"/>
      <point x="542" y="47"/>
      <point x="542" y="181" type="curve" smooth="yes"/>
      <point x="542" y="306"/>
      <point x="450" y="357"/>
      <point x="300" y="357" type="curve" smooth="yes"/>
      <point x="232" y="357" type="line"/>
      <point x="232" y="467" type="line"/>
      <point x="354" y="467" type="line"/>
      <point x="365" y="537" type="line"/>
      <point x="232" y="537" type="line"/>
      <point x="232" y="657" type="line"/>
    </contour>
    <contour>
      <point x="394" y="287"/>
      <point x="444" y="258"/>
      <point x="444" y="181" type="curve" smooth="yes"/>
      <point x="444" y="92"/>
      <point x="386" y="72"/>
      <point x="309" y="72" type="curve" smooth="yes"/>
      <point x="232" y="72" type="line"/>
      <point x="232" y="287" type="line"/>
      <point x="309" y="287" type="line" smooth="yes"/>
    </contour>
  </outline>
</glyph>
<glyph name="uni0490" format="1">
  <advance width="600"/>
  <unicode hex="0490"/>
  <outline>
    <contour>
      <point x="454" y="836" type="line"/>
      <point x="454" y="679" type="line"/>
      <point x="546" y="689" type="line"/>
      <point x="546" y="836" type="line"/>
    </contour>
    <component base="uni0413"/>
  </outline>
</glyph>
<glyph name="uni0492" format="1">
  <advance width="600"/>
  <unicode hex="0492"/>
  <outline>
    <contour>
      <point x="161" y="433" type="line"/>
      <point x="63" y="433" type="line"/>
      <point x="63" y="363" type="line"/>
      <point x="256" y="363" type="line"/>
      <point x="412" y="363" type="line"/>
      <point x="412" y="433" type="line"/>
    </contour>
    <component base="uni0413" xOffset="30"/>
  </outline>
</glyph>
<glyph name="uni0497" format="1">
  <advance width="600"/>
  <unicode hex="0497"/>
  <outline>
    <contour>
      <point x="339" y="0" type="line"/>
      <point x="339" y="245" type="line"/>
      <point x="390" y="245" type="line"/>
      <point x="487" y="0" type="line"/>
      <point x="578" y="0" type="line"/>
      <point x="461" y="283" type="line"/>
      <point x="569" y="527" type="line"/>
      <point x="481" y="527" type="line"/>
      <point x="392" y="313" type="line"/>
      <point x="339" y="313" type="line"/>
      <point x="339" y="527" type="line"/>
      <point x="261" y="527" type="line"/>
      <point x="261" y="313" type="line"/>
      <point x="208" y="313" type="line"/>
      <point x="122" y="527" type="line"/>
      <point x="31" y="527" type="line"/>
      <point x="139" y="283" type="line"/>
      <point x="22" y="0" type="line"/>
      <point x="111" y="0" type="line"/>
      <point x="208" y="245" type="line"/>
      <point x="261" y="245" type="line"/>
      <point x="261" y="0" type="line"/>
    </contour>
    <component base="descStraight-cy" xOffset="264"/>
    <contour>
      <point x="548" y="0" type="move" name="bottomright"/>
    </contour>
  </outline>
</glyph>
<glyph name="uni04A0" format="1">
  <advance width="600"/>
  <unicode hex="04A0"/>
  <outline>
    <contour>
      <point x="487" y="0" type="line"/>
      <point x="600" y="0" type="line"/>
      <point x="372" y="366" type="line"/>
      <point x="581" y="689" type="line"/>
      <point x="480" y="689" type="line"/>
      <point x="292" y="401" type="line"/>
      <point x="223" y="401" type="line"/>
      <point x="223" y="689" type="line"/>
      <point x="10" y="689" type="line"/>
      <point x="10" y="608" type="line"/>
      <point x="128" y="608" type="line"/>
      <point x="128" y="0" type="line"/>
      <point x="223" y="0" type="line"/>
      <point x="223" y="323" type="line"/>
      <point x="291" y="323" type="line"/>
    </contour>
  </outline>
</glyph>
<glyph name="uni04AF" format="1">
  <advance width="600"/>
  <unicode hex="04AF"/>
  <outline>
    <contour>
      <point x="345" y="-202" type="line"/>
      <point x="345" y="15" type="line"/>
      <point x="546" y="527" type="line"/>
      <point x="451" y="527" type="line"/>
      <point x="302" y="101" type="line"/>
      <point x="152" y="527" type="line"/>
      <point x="54" y="527" type="line"/>
      <point x="255" y="15" type="line"/>
      <point x="255" y="-213" type="line"/>
    </contour>
  </outline>
</glyph>
<glyph name="uni04B0" format="1">
  <advance width="600"/>
  <unicode hex="04B0"/>
  <outline>
    <contour>
      <point x="223" y="316" type="line"/>
      <point x="125" y="316" type="line"/>
      <point x="125" y="246" type="line"/>
      <point x="348" y="246" type="line"/>
      <point x="475" y="246" type="line"/>
      <point x="475" y="316" type="line"/>
    </contour>
    <component base="Y"/>
  </outline>
</glyph>
<glyph name="uni04B8" format="1">
  <advance width="600"/>
  <unicode hex="04B8"/>
  <outline>
    <contour>
      <point x="260" y="540" type="line"/>
      <point x="260" y="299" type="line"/>
      <point x="260" y="120" type="line"/>
      <point x="319" y="120" type="line"/>
      <point x="319" y="540" type="line"/>
    </contour>
    <component base="uni0427"/>
  </outline>
</glyph>
<glyph name="uni04B9" format="1">
  <advance width="600"/>
  <unicode hex="04B9"/>
  <outline>
    <contour>
      <point x="251" y="390" type="line"/>
      <point x="251" y="90" type="line"/>
      <point x="306" y="90" type="line"/>
      <point x="306" y="390" type="line"/>
    </contour>
    <component base="uni0447"/>
  </outline>
</glyph>
<glyph name="uni0526" format="1">
  <advance width="600"/>
  <unicode hex="0526"/>
  <outline>
    <contour>
      <point x="262" y="452"/>
      <point x="206" y="421"/>
      <point x="165" y="372" type="curve"/>
      <point x="165" y="284" type="line"/>
      <point x="204" y="338"/>
      <point x="250" y="371"/>
      <point x="320" y="371" type="curve" smooth="yes"/>
      <point x="408" y="371"/>
      <point x="448" y="323"/>
      <point x="448" y="234" type="curve" smooth="yes"/>
      <point x="448" y="0" type="line"/>
      <point x="543" y="0" type="line"/>
      <point x="543" y="235" type="line" smooth="yes"/>
      <point x="543" y="371"/>
      <point x="469" y="452"/>
      <point x="342" y="452" type="curve" smooth="yes"/>
    </contour>
    <contour>
      <point x="80" y="689" type="line"/>
      <point x="80" y="0" type="line"/>
      <point x="175" y="0" type="line"/>
      <point x="175" y="689" type="line"/>
    </contour>
    <component base="descStraight-cy.case" xOffset="242"/>
    <contour>
      <point x="561" y="0" type="move" name="bottomright"/>
    </contour>
  </outline>
</glyph>
<glyph name="figuredash" format="1">
  <advance width="600"/>
  <unicode hex="2012"/>
  <outline>
    <contour>
      <point x="565" y="274" type="line"/>
      <point x="565" y="352" type="line"/>
      <point x="35" y="352" type="line"/>
      <point x="35" y="274" type="line"/>
    </contour>
  </outline>
</glyph>
<glyph name="underscoredbl" format="1">
  <advance width="600"/>
  <unicode hex="2017"/>
  <outline>
    <contour>
      <point x="-3" y="0" type="line"/>
      <point x="-3" y="-79" type="line"/>
      <point x="603" y="-79" type="line"/>
      <point x="603" y="0" type="line"/>
    </contour>
    <contour>
      <point x="-3" y="-136" type="line"/>
      <point x="-3" y="-215" type="line"/>
      <point x="603" y="-215" type="line"/>
      <point x="603" y="-136" type="line"/>
    </contour>
  </outline>
</glyph>
<glyph name="quotedblbase" format="1">
  <advance width="600"/>
  <unicode hex="201E"/>
  <outline>
    <contour>
      <point x="120" y="34"/>
      <point x="131" y="13"/>
      <point x="148" y="1" type="curve"/>
      <point x="107" y="-182" type="line"/>
      <point x="175" y="-182" type="line"/>
      <point x="256" y="-12" type="line" smooth="yes"/>
      <point x="272" y="22"/>
      <point x="276" y="38"/>
      <point x="276" y="58" type="curve" smooth="yes"/>
      <point x="276" y="100"/>
      <point x="241" y="133"/>
      <point x="198" y="133" type="curve" smooth="yes"/>
      <point x="156" y="133"/>
      <point x="120" y="100"/>
      <point x="120" y="58" type="curve" smooth="yes"/>
    </contour>
    <contour>
      <point x="337" y="34"/>
      <point x="348" y="13"/>
      <point x="365" y="1" type="curve"/>
      <point x="324" y="-182" type="line"/>
      <point x="392" y="-182" type="line"/>
      <point x="473" y="-12" type="line" smooth="yes"/>
      <point x="488" y="20"/>
      <point x="492" y="38"/>
      <point x="492" y="58" type="curve" smooth="yes"/>
      <point x="492" y="100"/>
      <point x="458" y="133"/>
      <point x="415" y="133" type="curve" smooth="yes"/>
      <point x="373" y="133"/>
      <point x="337" y="100"/>
      <point x="337" y="58" type="curve" smooth="yes"/>
    </contour>
  </outline>
</glyph>
<glyph name="dagger" format="1">
  <advance width="600"/>
  <unicode hex="2020"/>
  <outline>
    <contour>
      <point x="256" y="677" type="line"/>
      <point x="256" y="522" type="line"/>
      <point x="87" y="522" type="line"/>
      <point x="87" y="445" type="line"/>
      <point x="256" y="445" type="line"/>
      <point x="256" y="0" type="line"/>
      <point x="344" y="0" type="line"/>
      <point x="344" y="445" type="line"/>
      <point x="513" y="445" type="line"/>
      <point x="513" y="522" type="line"/>
      <point x="344" y="522" type="line"/>
      <point x="344" y="677" type="line"/>
    </contour>
  </outline>
</glyph>
<glyph name="fraction" format="1">
  <advance width="0"/>
  <unicode hex="2044"/>
  <outline>
    <contour>
      <point x="283" y="439" type="line"/>
      <point x="252" y="495" type="line"/>
      <point x="-283" y="239" type="line"/>
      <point x="-251" y="183" type="line"/>
    </contour>
  </outline>
</glyph>
<glyph name="arrowleft" format="1">
  <advance width="600"/>
  <unicode hex="2190"/>
  <outline>
    <contour>
      <point x="20" y="329" type="line"/>
      <point x="295" y="21" type="line"/>
      <point x="362" y="78" type="line"/>
      <point x="227" y="226" type="line" smooth="yes"/>
      <point x="205" y="250"/>
      <point x="183" y="272"/>
      <point x="157" y="289" type="curve"/>
      <point x="580" y="289" type="line"/>
      <point x="580" y="369" type="line"/>
      <point x="157" y="369" type="line"/>
      <point x="187" y="388"/>
      <point x="198" y="400"/>
      <point x="227" y="432" type="curve" smooth="yes"/>
      <point x="362" y="580" type="line"/>
      <point x="295" y="637" type="line"/>
    </contour>
  </outline>
</glyph>
<glyph name="arrowboth" format="1">
  <advance width="600"/>
  <unicode hex="2194"/>
  <outline>
    <contour>
      <point x="430" y="610" type="line"/>
      <point x="363" y="553" type="line"/>
      <point x="473" y="432" type="line" smooth="yes"/>
      <point x="502" y="400"/>
      <point x="513" y="388"/>
      <point x="543" y="369" type="curve"/>
      <point x="57" y="369" type="line"/>
      <point x="87" y="388"/>
      <point x="98" y="400"/>
      <point x="127" y="432" type="curve" smooth="yes"/>
      <point x="239" y="553" type="line"/>
      <point x="172" y="610" type="line"/>
      <point x="-80" y="329" type="line"/>
      <point x="172" y="47" type="line"/>
      <point x="239" y="104" type="line"/>
      <point x="127" y="226" type="line" smooth="yes"/>
      <point x="105" y="250"/>
      <point x="83" y="272"/>
      <point x="57" y="289" type="curve"/>
      <point x="543" y="289" type="line"/>
      <point x="517" y="272"/>
      <point x="494" y="250"/>
      <point x="473" y="226" type="curve" smooth="yes"/>
      <point x="364" y="104" type="line"/>
      <point x="431" y="47" type="line"/>
      <point x="680" y="329" type="line"/>
    </contour>
  </outline>
</glyph>
<glyph name="infinity" format="1">
  <advance width="600"/>
  <unicode hex="221E"/>
  <outline>
    <contour>
      <point x="375" y="513"/>
      <point x="333" y="456"/>
      <point x="299" y="386" type="curve"/>
      <point x="260" y="470"/>
      <point x="216" y="513"/>
      <point x="144" y="513" type="curve" smooth="yes"/>
      <point x="35" y="513"/>
      <point x="-7" y="427"/>
      <point x="-7" y="316" type="curve" smooth="yes"/>
      <point x="-7" y="206"/>
      <point x="34" y="118"/>
      <point x="147" y="118" type="curve" smooth="yes"/>
      <point x="224" y="118"/>
      <point x="267" y="174"/>
      <point x="300" y="245" type="curve"/>
      <point x="337" y="161"/>
      <point x="383" y="118"/>
      <point x="455" y="118" type="curve" smooth="yes"/>
      <point x="564" y="118"/>
      <point x="606" y="204"/>
      <point x="606" y="315" type="curve" smooth="yes"/>
      <point x="606" y="425"/>
      <point x="565" y="513"/>
      <point x="452" y="513" type="curve" smooth="yes"/>
    </contour>
    <contour>
      <point x="211" y="441"/>
      <point x="238" y="373"/>
      <point x="260" y="326" type="curve"/>
      <point x="234" y="258"/>
      <point x="207" y="191"/>
      <point x="151" y="191" type="curve" smooth="yes"/>
      <point x="104" y="191"/>
      <point x="81" y="232"/>
      <point x="81" y="316" type="curve" smooth="yes"/>
      <point x="81" y="401"/>
      <point x="105" y="441"/>
      <point x="151" y="441" type="curve" smooth="yes"/>
    </contour>
    <contour>
      <point x="495" y="440"/>
      <point x="518" y="399"/>
      <point x="518" y="315" type="curve" smooth="yes"/>
      <point x="518" y="230"/>
      <point x="494" y="190"/>
      <point x="448" y="190" type="curve" smooth="yes"/>
      <point x="388" y="190"/>
      <point x="361" y="258"/>
      <point x="339" y="305" type="curve"/>
      <point x="365" y="373"/>
      <point x="392" y="440"/>
      <point x="448" y="440" type="curve" smooth="yes"/>
    </contour>
  </outline>
</glyph>
<glyph name="equivalence" format="1">
  <advance width="600"/>
  <unicode hex="2261"/>
  <outline>
    <contour>
      <point x="102" y="543" type="line"/>
      <point x="102" y="465" type="line"/>
      <point x="498" y="465" type="line"/>
      <point x="498" y="543" type="line"/>
    </contour>
    <contour>
      <point x="102" y="159" type="line"/>
      <point x="102" y="81" type="line"/>
      <point x="498" y="81" type="line"/>
      <point x="498" y="159" type="line"/>
    </contour>
    <contour>
      <point x="102" y="351" type="line"/>
      <point x="102" y="273" type="line"/>
      <point x="498" y="273" type="line"/>
      <point x="498" y="351" type="line"/>
    </contour>
  </outline>
</glyph>
<glyph name="uni252E" format="1">
  <advance width="600"/>
  <unicode hex="252E"/>
  <outline>
    <contour>
      <point x="260" y="470" type="line"/>
      <point x="260" y="390" type="line"/>
      <point x="-5" y="390" type="line"/>
      <point x="-5" y="310" type="line"/>
      <point x="260" y="310" type="line"/>
      <point x="260" y="-500" type="line"/>
      <point x="340" y="-500" type="line"/>
      <point x="340" y="230" type="line"/>
      <point x="605" y="230" type="line"/>
      <point x="605" y="470" type="line"/>
    </contour>
  </outline>
</glyph>
<glyph name="whiteSquareWithRoundedCorners" format="1">
  <advance width="600"/>
  <unicode hex="25A2"/>
  <outline>
    <contour>
      <point x="70" y="540"/>
      <point x="30" y="499"/>
      <point x="30" y="270" type="curve" smooth="yes"/>
      <point x="30" y="40"/>
      <point x="70" y="0"/>
      <point x="300" y="0" type="curve" smooth="yes"/>
      <point x="529" y="0"/>
      <point x="570" y="40"/>
      <point x="570" y="270" type="curve" smooth="yes"/>
      <point x="570" y="499"/>
      <point x="529" y="540"/>
      <point x="300" y="540" type="curve" smooth="yes"/>
    </contour>
    <contour>
      <point x="461" y="460"/>
      <point x="490" y="431"/>
      <point x="490" y="270" type="curve" smooth="yes"/>
      <point x="490" y="108"/>
      <point x="461" y="80"/>
      <point x="300" y="80" type="curve" smooth="yes"/>
      <point x="138" y="80"/>
      <point x="110" y="108"/>
      <point x="110" y="270" type="curve" smooth="yes"/>
      <point x="110" y="431"/>
      <point x="138" y="460"/>
      <point x="300" y="460" type="curve" smooth="yes"/>
    </contour>
  </outline>
</glyph>
<glyph name="nine.tosf" format="1">
  <advance width="600"/>
  <outline>
    <contour>
      <point x="164" y="574"/>
      <point x="64" y="488"/>
      <point x="64" y="355" type="curve"/>
      <point x="64" y="229"/>
      <point x="147" y="139"/>
      <point x="262" y="140" type="curve" smooth="yes"/>
      <point x="338" y="141"/>
      <point x="394" y="174"/>
      <point x="425" y="227" type="curve"/>
      <point x="430" y="309" type="line"/>
      <point x="392" y="241"/>
      <point x="346" y="213"/>
      <point x="281" y="212" type="curve" smooth="yes"/>
      <point x="205" y="211"/>
      <point x="159" y="261"/>
      <point x="159" y="353" type="curve"/>
      <point x="159" y="442"/>
      <point x="204" y="501"/>
      <point x="290" y="501" type="curve" smooth="yes"/>
      <point x="388" y="501"/>
      <point x="429" y="440"/>
      <point x="422" y="261" type="curve"/>
      <point x="421" y="215" type="line"/>
      <point x="419" y="86"/>
      <point x="309" y="-3"/>
      <point x="124" y="-52" type="curve"/>
      <point x="145" y="-121" type="line"/>
      <point x="406" y="-50"/>
      <point x="518" y="50"/>
      <point x="518" y="307" type="curve" smooth="yes"/>
      <point x="518" y="471"/>
      <point x="445" y="574"/>
      <point x="290" y="574" type="curve" smooth="yes"/>
    </contour>
  </outline>
</glyph>
<glyph name="plus.dnom" format="1">
  <advance width="600"/>
  <outline>
    <contour>
      <point x="266" y="287" type="line"/>
      <point x="266" y="198" type="line"/>
      <point x="181" y="198" type="line"/>
      <point x="181" y="134" type="line"/>
      <point x="266" y="134" type="line"/>
      <point x="266" y="46" type="line"/>
      <point x="335" y="46" type="line"/>
      <point x="335" y="134" type="line"/>
      <point x="419" y="134" type="line"/>
      <point x="419" y="198" type="line"/>
      <point x="335" y="198" type="line"/>
      <point x="335" y="287" type="line"/>
    </contour>
  </outline>
</glyph>
